<svg width="193" height="189" viewBox="0 0 193 189" fill="none" xmlns="http://www.w3.org/2000/svg">
<path d="M131.395 147.779C143.275 147.779 152.906 138.148 152.906 126.268C152.906 114.388 143.275 104.757 131.395 104.757C119.515 104.757 109.884 114.388 109.884 126.268C109.884 138.148 119.515 147.779 131.395 147.779Z" fill="black"/>
<path d="M131.395 104.756C143.275 104.756 152.906 95.1252 152.906 83.245C152.906 71.3648 143.275 61.734 131.395 61.734C119.515 61.734 109.884 71.3648 109.884 83.245C109.884 95.1252 119.515 104.756 131.395 104.756Z" fill="black"/>
<path fill-rule="evenodd" clip-rule="evenodd" d="M88.372 63.024C77.2042 63.024 68.151 72.0773 68.151 83.245C68.151 94.4128 77.2042 103.466 88.372 103.466C99.5397 103.466 108.593 94.4128 108.593 83.245C108.593 72.0773 99.5397 63.024 88.372 63.024ZM65.571 83.245C65.571 70.6524 75.7793 60.444 88.372 60.444C100.965 60.444 111.173 70.6524 111.173 83.245C111.173 95.8376 100.965 106.046 88.372 106.046C75.7793 106.046 65.571 95.8376 65.571 83.245Z" fill="black"/>
<path d="M45.349 104.756C57.2292 104.756 66.86 95.1252 66.86 83.245C66.86 71.3648 57.2292 61.734 45.349 61.734C33.4688 61.734 23.838 71.3648 23.838 83.245C23.838 95.1252 33.4688 104.756 45.349 104.756Z" fill="black"/>
<path d="M88.372 61.734C100.252 61.734 109.883 52.1032 109.883 40.223C109.883 28.3428 100.252 18.712 88.372 18.712C76.4918 18.712 66.861 28.3428 66.861 40.223C66.861 52.1032 76.4918 61.734 88.372 61.734Z" fill="black"/>
<path fill-rule="evenodd" clip-rule="evenodd" d="M46.444 103.662V148.874H44.254V103.662H46.444Z" fill="black"/>
<path fill-rule="evenodd" clip-rule="evenodd" d="M46.364 29.354V62.749H44.334V29.354H46.364Z" fill="black"/>
<path fill-rule="evenodd" clip-rule="evenodd" d="M89.352 0.788002V19.691H87.392V0.788002H89.352Z" fill="black"/>
<path fill-rule="evenodd" clip-rule="evenodd" d="M108.833 39.173H147.663V41.273H108.833V39.173Z" fill="black"/>
<path fill-rule="evenodd" clip-rule="evenodd" d="M28.931 39.023H68.061V41.423H28.931V39.023Z" fill="black"/>
<path fill-rule="evenodd" clip-rule="evenodd" d="M25.1672 84.4945L1.07748 85.2392L0.997757 82.6605L25.0875 81.9158L25.1672 84.4945Z" fill="black"/>
<path fill-rule="evenodd" clip-rule="evenodd" d="M151.946 82.285H160.862V84.205H151.946V82.285Z" fill="black"/>
<path fill-rule="evenodd" clip-rule="evenodd" d="M32.863 125.053H111.098V127.483H32.863V125.053Z" fill="black"/>
<path fill-rule="evenodd" clip-rule="evenodd" d="M7.359 71.882V100.119H4.869V71.882H7.359Z" fill="black"/>
<path fill-rule="evenodd" clip-rule="evenodd" d="M89.562 103.567V178.252H87.182V103.567H89.562Z" fill="black"/>
<path fill-rule="evenodd" clip-rule="evenodd" d="M132.465 146.709V188.117H130.325V146.709H132.465Z" fill="black"/>
<path fill-rule="evenodd" clip-rule="evenodd" d="M151.811 125.173H168.159V127.363H151.811V125.173Z" fill="black"/>
<path fill-rule="evenodd" clip-rule="evenodd" d="M78.077 167.981H191.464V170.601H78.077V167.981Z" fill="black"/>
<path fill-rule="evenodd" clip-rule="evenodd" d="M175.547 140.951V182.479H173.287V140.951H175.547Z" fill="black"/>
<path fill-rule="evenodd" clip-rule="evenodd" d="M132.525 29.239V62.864H130.265V29.239H132.525Z" fill="black"/>
</svg>
